<svg id="Capa_1" data-name="Capa 1" xmlns="http://www.w3.org/2000/svg" viewBox="0 0 15.32 9.57"><defs><style>.cls-1{fill:#fff;}</style></defs><title>icono_behance</title><path class="cls-1" d="M10.89,14.8H8.5V12.88h2.39a1,1,0,1,1,0,1.93m3.37,2.86a2.42,2.42,0,0,0-1.63-2.26A2.39,2.39,0,0,0,11.38,11H6.59v9.57h4.79a2.89,2.89,0,0,0,2.88-2.88m2.39-.47h5.26v-.24a3.47,3.47,0,0,0-3.58-3.58,3.47,3.47,0,0,0-3.6,3.58,3.48,3.48,0,0,0,3.6,3.59,3.27,3.27,0,0,0,3.51-2.88H19.9a1.58,1.58,0,0,1-1.57,1.44,1.86,1.86,0,0,1-1.68-1.91m3.26-1H16.74a1.56,1.56,0,0,1,1.59-1.42,1.58,1.58,0,0,1,1.57,1.42m-3.73-4.79h4.3v1.44h-4.3ZM8.5,16.22h2.39a1.28,1.28,0,0,1,1.44,1.25c0,.53-.42,1.15-.95,1.15H8.5Z" transform="translate(-6.59 -10.96)"/></svg>