<svg id="Capa_1" data-name="Capa 1" xmlns="http://www.w3.org/2000/svg" viewBox="0 0 136.64 18.83"><defs><style>.cls-1{fill:#fff;}</style></defs><title>logo_kilkadg</title><path class="cls-1" d="M9.64,12.43v5.77c.11,3.28,3.06,6.42,7,7l2.88-2.88a14.23,14.23,0,0,1-9.86-9.86" transform="translate(-9.64 -6.33)"/><path class="cls-1" d="M10,12.29a11.11,11.11,0,0,0,1.64,3.6A13.92,13.92,0,0,0,19,9.32l-2.59-3a13.64,13.64,0,0,1-6.36,6" transform="translate(-9.64 -6.33)"/><path class="cls-1" d="M142,14.29a1.34,1.34,0,0,1,1.13-.56q1.55,0,1.55,2.12a2.63,2.63,0,0,1-.42,1.59,1.34,1.34,0,0,1-1.13.56q-1.55,0-1.55-2.15a2.56,2.56,0,0,1,.42-1.56m-1.18,4a3.33,3.33,0,0,0,4.6,0,3.54,3.54,0,0,0,.84-2.48,3.52,3.52,0,0,0-.82-2.47,3.31,3.31,0,0,0-4.58,0,3.46,3.46,0,0,0-.86,2.43,3.57,3.57,0,0,0,.82,2.47m-3.64-5.83a3.53,3.53,0,0,0-2.61,1,3.36,3.36,0,0,0-1,2.49,3.32,3.32,0,0,0,.87,2.44,3.21,3.21,0,0,0,2.38.88,5.51,5.51,0,0,0,1.17-.11,3.83,3.83,0,0,0,1.16-.52l-.56-1.2a2.21,2.21,0,0,1-1.49.56q-2,0-2-2.05a2.34,2.34,0,0,1,.5-1.59,1.72,1.72,0,0,1,1.37-.58,2,2,0,0,1,1.44.51l.65-1.14a3.18,3.18,0,0,0-2-.64m-4.91,6.64V12.61h-1.56l0,6.52Zm-1.38-8.79a.88.88,0,1,0,.62-.26.85.85,0,0,0-.62.26m-1.09-.17a4.66,4.66,0,0,0-1.32-.24,2.19,2.19,0,0,0-1.71.74,3,3,0,0,0-.71,1.94h-1v1.25h1v5.27h1.52V13.86h1.33V12.61h-1.35c0-.05,0-.1,0-.16a1.4,1.4,0,0,1,.3-.91.91.91,0,0,1,.73-.37,2.68,2.68,0,0,1,.77.16Zm-8.26-.23-1,1.78h1.16l1.38-1.78Zm1,6.72A1.21,1.21,0,0,1,121.2,18q-1,0-1-.88,0-1.18,1.8-1.18a3.24,3.24,0,0,1,.58.08Zm.5,2.34a.85.85,0,0,0,.59.24,1.69,1.69,0,0,0,.53-.08.82.82,0,0,0,.42-.4q-.52-.33-.52-1.64V15.74a3.61,3.61,0,0,0-.69-2.57,3,3,0,0,0-2.18-.68,4.28,4.28,0,0,0-1.87.38l.33,1.18a3.22,3.22,0,0,1,1.44-.29q1.45,0,1.45,1.15a2.66,2.66,0,0,0-.63-.09,4,4,0,0,0-2.41.64,2.09,2.09,0,0,0-.85,1.77,1.88,1.88,0,0,0,.6,1.49,2.43,2.43,0,0,0,1.66.53A2.74,2.74,0,0,0,122,19a1.48,1.48,0,0,0,.72-.56,1.24,1.24,0,0,0,.35.53m-4.89-6.28a2.44,2.44,0,0,0-1.19-.24,2.16,2.16,0,0,0-1.7.72v-.6h-1.52v6.52h1.52V15.42a1.74,1.74,0,0,1,.41-1.17,1.22,1.22,0,0,1,.94-.48,1.6,1.6,0,0,1,.9.27Zm-9.31,1.33a1.16,1.16,0,0,1,.85-.33,1.05,1.05,0,0,1,.81.34,1.18,1.18,0,0,1,.31.83,1.4,1.4,0,0,1-.29.94,1,1,0,0,1-.83.34,1.1,1.1,0,0,1-.86-.35,1.32,1.32,0,0,1-.32-.93,1.15,1.15,0,0,1,.33-.85m.86,7.63a3.92,3.92,0,0,0,2.14-.56,1.75,1.75,0,0,0,.89-1.55q0-1.78-2.22-1.78a3.87,3.87,0,0,0-.76.09,3.65,3.65,0,0,1-.63.09c-.28,0-.42-.08-.42-.24s.09-.18.28-.27a1.68,1.68,0,0,1,.33-.13l.25,0,.44,0a2.35,2.35,0,0,0,1.71-.67,2.39,2.39,0,0,0,.68-1.78,2.4,2.4,0,0,0-.38-1.35l.72-.53-1.05-1-.6.69a3,3,0,0,0-1.47-.33,2.73,2.73,0,0,0-1.89.68,2.22,2.22,0,0,0-.77,1.73,2.31,2.31,0,0,0,1.11,2.05,1.61,1.61,0,0,0-.61.46,1,1,0,0,0-.26.63q0,1.13,1.57,1.13a7,7,0,0,0,.76-.06,7,7,0,0,1,.76-.06q.94,0,.94.58a.6.6,0,0,1-.43.54,2.62,2.62,0,0,1-1.08.19,2.57,2.57,0,0,1-1.78-.73l-1,1.19a4.49,4.49,0,0,0,2.71.88m-11.46-7.4a1.34,1.34,0,0,1,1.13-.56q1.55,0,1.55,2.12a2.62,2.62,0,0,1-.42,1.59,1.33,1.33,0,0,1-1.13.56q-1.55,0-1.55-2.15a2.56,2.56,0,0,1,.42-1.56m-1.18,4a3.33,3.33,0,0,0,4.6,0,3.54,3.54,0,0,0,.84-2.48,3.52,3.52,0,0,0-.82-2.47,3.31,3.31,0,0,0-4.58,0,3.45,3.45,0,0,0-.86,2.43,3.58,3.58,0,0,0,.82,2.47m-5.63-6.87a2,2,0,0,1,.63.23,2,2,0,0,0,.86.23,1.15,1.15,0,0,0,.84-.33,2.69,2.69,0,0,0,.57-1.23h-.9q-.16.47-.53.47a2,2,0,0,1-.61-.23,2.13,2.13,0,0,0-1-.23,1.08,1.08,0,0,0-.87.44A2.39,2.39,0,0,0,90,11.92h.88q.23-.47.54-.47m3.58,7.68v-4a2.68,2.68,0,0,0-.67-1.94,2.43,2.43,0,0,0-1.83-.7,2.27,2.27,0,0,0-1.83.73l-.28-.61h-1.1v6.52h1.52V14.42a1.63,1.63,0,0,1,.59-.47,1.61,1.61,0,0,1,.72-.19,1.29,1.29,0,0,1,1,.38,1.89,1.89,0,0,1,.32,1.22v3.77ZM85,13.76a1.43,1.43,0,0,1,1.58,1.43h-3.2A1.57,1.57,0,0,1,85,13.76m3.11,1.73a2.9,2.9,0,0,0-.86-2.15,3.34,3.34,0,0,0-4.56.11,3.38,3.38,0,0,0-1,2.49,3.31,3.31,0,0,0,.87,2.44,3.17,3.17,0,0,0,2.36.87,3.75,3.75,0,0,0,2.4-.65l-.59-1.16A2.15,2.15,0,0,1,85.2,18a1.94,1.94,0,0,1-1.33-.43,1.65,1.65,0,0,1-.54-1.21H88a4.19,4.19,0,0,0,.13-.85M77.41,19.14a4.15,4.15,0,0,0,1,.11,2.92,2.92,0,0,0,1.83-.52A1.71,1.71,0,0,0,81,17.3a1.83,1.83,0,0,0-.38-1.16,2.87,2.87,0,0,0-1.24-.82,5.34,5.34,0,0,1-1.12-.54.57.57,0,0,1-.26-.45q0-.63.8-.63a2.07,2.07,0,0,1,1.39.43l.44-1.18a4.15,4.15,0,0,0-1.91-.46A2.72,2.72,0,0,0,77,13a1.54,1.54,0,0,0-.65,1.32q0,1.26,1.69,2a4.12,4.12,0,0,1,1,.56.78.78,0,0,1,.27.61q0,.63-.89.63a2.41,2.41,0,0,1-1.54-.54l-.54,1.21a5.2,5.2,0,0,0,1,.44m-2.38,0V12.61H73.49v6.52Zm-1.38-8.79a.88.88,0,1,0,.62-.26.85.85,0,0,0-.62.26M70,17.57a1,1,0,0,1-.42.26,1.48,1.48,0,0,1-.54.13q-2,0-2-2a2.33,2.33,0,0,1,.49-1.6A1.77,1.77,0,0,1,69,13.78a1.61,1.61,0,0,1,1,.39Zm1.52,1.56V9.82L70,10.18v2.61a3,3,0,0,0-1.35-.3,2.93,2.93,0,0,0-2.25,1,3.55,3.55,0,0,0-.9,2.52,3.46,3.46,0,0,0,.78,2.41,2.75,2.75,0,0,0,2.14.86,2.84,2.84,0,0,0,.93-.15,1.54,1.54,0,0,0,.64-.36v.4ZM58.94,16.67A1.21,1.21,0,0,1,57.57,18q-1,0-1-.88,0-1.18,1.8-1.18a3.25,3.25,0,0,1,.58.08Zm.5,2.34a.84.84,0,0,0,.59.24,1.67,1.67,0,0,0,.53-.08.81.81,0,0,0,.42-.4q-.52-.33-.52-1.64V15.74a3.61,3.61,0,0,0-.69-2.57,3,3,0,0,0-2.18-.68,4.27,4.27,0,0,0-1.87.38L56,14a3.23,3.23,0,0,1,1.44-.29q1.46,0,1.46,1.15a2.66,2.66,0,0,0-.63-.09,4,4,0,0,0-2.41.64A2.09,2.09,0,0,0,55,17.23a1.88,1.88,0,0,0,.6,1.49,2.43,2.43,0,0,0,1.66.53A2.74,2.74,0,0,0,58.36,19a1.48,1.48,0,0,0,.72-.56,1.23,1.23,0,0,0,.35.53M55,19.13l-2.65-4,2.2-2.47H52.71l-2.17,2.5V9.82L49,10.18v8.95h1.52V16.95l.73-.77,1.92,3ZM45.6,17.81q0,1.44,1,1.44a1.25,1.25,0,0,0,1.21-.67q-.72-.23-.72-1.44V9.82l-1.52.36Zm-2,1.31V12.61H42l0,6.52Zm-1.38-8.79a.88.88,0,1,0,.62-.26.85.85,0,0,0-.62.26m-1.42,8.79-2.65-4,2.2-2.47H38.48l-2.17,2.5V9.82l-1.52.36v8.95h1.52V16.95l.73-.77,1.92,3Z" transform="translate(-9.64 -6.33)"/></svg>