<?xml version="1.0"?>
<svg xmlns="http://www.w3.org/2000/svg" xmlns:xlink="http://www.w3.org/1999/xlink" version="1.1" id="Capa_1" x="0px" y="0px" viewBox="0 0 64 64" style="enable-background:new 0 0 64 64;" xml:space="preserve" width="512px" height="512px" class=""><g><g>
	<g>
		<rect x="5" y="31" width="4" height="2" data-original="#DAD6D6" class="active-path" data-old_color="#303030" fill="#2C2C2C"/>
		<rect x="23" y="31" width="4" height="2" data-original="#DAD6D6" class="active-path" data-old_color="#303030" fill="#2C2C2C"/>
		<rect x="17" y="31" width="4" height="2" data-original="#DAD6D6" class="active-path" data-old_color="#303030" fill="#2C2C2C"/>
		<rect x="11" y="31" width="4" height="2" data-original="#DAD6D6" class="active-path" data-old_color="#303030" fill="#2C2C2C"/>
		<path d="M48,16c-8.485,0-15.429,6.645-15.949,15H29v2h3.051c0.52,8.355,7.464,15,15.949,15c8.822,0,16-7.178,16-16    S56.822,16,48,16z M48,46c-7.72,0-14-6.28-14-14s6.28-14,14-14s14,6.28,14,14S55.72,46,48,46z" data-original="#DAD6D6" class="active-path" data-old_color="#303030" fill="#2C2C2C"/>
		<polygon points="9.146,22.293 0,31.293 0,32.707 9.146,41.707 10.634,40.293 3,32.586 3,31.414 10.634,23.707   " data-original="#DAD6D6" class="active-path" data-old_color="#303030" fill="#2C2C2C"/>
	</g>
</g></g> </svg>
