<svg id="Capa_1" data-name="Capa 1" xmlns="http://www.w3.org/2000/svg" viewBox="0 0 14.35 6.28"><defs><style>.cls-1{fill:#fff;}</style></defs><title>icono_flickr</title><path class="cls-1" d="M10.26,12.61A3.17,3.17,0,0,0,7.1,15.33a3,3,0,0,0,0,.42,3.18,3.18,0,0,0,6.37,0,3.1,3.1,0,0,0-.29-1.31,3.19,3.19,0,0,0-2.89-1.83" transform="translate(-7.07 -12.61)"/><path class="cls-1" d="M21.41,15.5a3.19,3.19,0,0,0-6.07-1,3.09,3.09,0,0,0-.28,1.29,3.18,3.18,0,0,0,6.37,0c0-.08,0-.17,0-.25" transform="translate(-7.07 -12.61)"/></svg>